<?xml version="1.0" encoding="UTF-8" standalone="no"?>
<!DOCTYPE svg PUBLIC "-//W3C//DTD SVG 1.1//EN" "http://www.w3.org/Graphics/SVG/1.1/DTD/svg11.dtd">
<svg xmlns="http://www.w3.org/2000/svg" version="1.1" viewBox="0.00 0.00 2552.00 1231.00">
<path fill="#ffffff" d="
  M 254.59 698.70
  L 48.91 698.70
  A 0.63 0.62 -90.0 0 1 48.29 698.07
  L 48.29 688.99
  A 0.84 0.83 -10.1 0 1 48.84 688.21
  C 65.04 682.52 79.12 679.43 99.39 675.12
  Q 102.06 674.55 106.01 673.41
  A 0.79 0.79 0.0 0 0 106.59 672.65
  L 106.59 128.49
  A 0.81 0.81 0.0 0 0 105.95 127.70
  C 87.22 123.54 68.17 118.29 50.45 111.85
  A 0.91 0.89 10.4 0 1 49.86 111.01
  L 49.86 102.06
  A 0.73 0.73 0.0 0 1 50.59 101.33
  Q 233.00 101.37 304.79 101.32
  Q 332.39 101.30 346.15 102.51
  C 371.16 104.71 396.58 110.24 419.01 121.99
  C 485.54 156.83 498.02 241.75 488.53 308.00
  Q 485.87 326.49 479.48 343.92
  Q 455.03 410.50 387.39 432.39
  Q 370.97 437.71 352.94 440.09
  A 0.28 0.28 0.0 0 0 352.73 440.49
  L 478.08 672.71
  A 0.93 0.91 80.6 0 0 478.71 673.17
  Q 499.43 676.88 518.10 681.90
  Q 527.88 684.52 536.94 688.17
  A 0.80 0.80 0.0 0 1 537.44 688.91
  L 537.44 698.13
  A 0.57 0.56 -90.0 0 1 536.88 698.70
  L 419.61 698.70
  A 1.01 1.01 0.0 0 1 418.71 698.15
  L 286.22 443.21
  A 0.98 0.97 -13.4 0 0 285.35 442.68
  L 190.06 442.68
  A 0.60 0.59 90.0 0 0 189.47 443.28
  L 189.47 672.70
  A 0.39 0.38 -85.6 0 0 189.79 673.08
  Q 222.48 678.56 254.55 689.09
  A 0.90 0.90 0.0 0 1 255.18 689.95
  L 255.18 698.11
  A 0.59 0.59 0.0 0 1 254.59 698.70
  Z
  M 189.47 133.63
  L 189.47 411.69
  A 0.24 0.23 90.0 0 0 189.70 411.93
  Q 230.66 412.00 299.75 411.90
  Q 315.45 411.88 332.50 408.01
  Q 375.65 398.24 396.64 360.42
  C 414.57 328.13 418.10 289.37 416.08 252.75
  C 414.83 230.07 410.33 206.67 400.02 186.62
  Q 380.48 148.59 338.04 137.92
  Q 318.63 133.04 299.00 133.00
  Q 242.74 132.89 190.14 132.96
  A 0.67 0.67 0.0 0 0 189.47 133.63
  Z"
/>
<path fill="#ffffff" d="
  M 1634.64 645.07
  L 1641.63 662.02
  A 0.86 0.86 0.0 0 1 1641.44 662.97
  Q 1629.33 674.90 1618.18 681.47
  Q 1587.93 699.28 1551.91 703.64
  C 1501.25 709.77 1448.54 700.74 1409.40 666.52
  C 1371.67 633.54 1352.01 581.24 1344.91 532.55
  Q 1336.11 472.28 1343.07 410.52
  C 1349.01 357.80 1367.79 301.73 1407.87 264.77
  C 1436.06 238.77 1471.44 226.00 1509.50 223.74
  C 1559.26 220.78 1607.51 232.25 1642.74 269.22
  A 0.85 0.83 -65.1 0 1 1642.97 269.87
  L 1637.84 350.67
  A 0.59 0.59 0.0 0 1 1637.25 351.23
  L 1624.51 351.23
  A 0.70 0.70 0.0 0 1 1623.83 350.71
  Q 1620.91 340.26 1619.08 328.94
  Q 1615.02 303.80 1613.14 276.79
  A 1.35 1.34 -71.3 0 0 1612.70 275.89
  C 1593.62 258.69 1568.35 249.23 1543.00 248.22
  C 1498.74 246.46 1459.83 262.95 1434.45 300.25
  C 1419.98 321.51 1410.07 346.58 1404.13 371.40
  C 1395.54 407.27 1393.30 443.34 1394.38 481.80
  C 1395.70 528.75 1403.29 577.09 1425.82 618.93
  C 1441.84 648.67 1466.83 669.35 1500.28 677.00
  Q 1534.95 684.94 1570.62 675.16
  Q 1607.07 665.17 1633.73 644.82
  A 0.59 0.59 0.0 0 1 1634.64 645.07
  Z"
/>
<path fill="#ffffff" d="
  M 1239.58 560.51
  L 1279.35 679.12
  A 0.35 0.33 83.9 0 0 1279.62 679.35
  Q 1303.64 683.35 1326.21 691.68
  A 0.84 0.84 0.0 0 1 1326.77 692.47
  L 1326.77 699.39
  A 0.67 0.67 0.0 0 1 1326.10 700.06
  L 1232.35 700.06
  A 0.49 0.48 -9.2 0 1 1231.89 699.73
  Q 1230.29 694.99 1193.96 587.95
  C 1189.22 574.00 1185.19 560.39 1181.26 548.39
  A 0.58 0.58 0.0 0 0 1180.75 547.99
  C 1132.78 544.51 1084.79 554.10 1042.87 577.86
  C 1009.13 596.98 979.40 624.81 956.20 656.64
  Q 915.22 712.84 907.48 783.97
  Q 902.28 831.71 911.96 877.99
  C 924.34 937.12 957.48 989.21 1003.60 1028.69
  Q 1071.97 1087.21 1162.26 1087.10
  Q 1181.59 1087.07 1202.84 1082.07
  C 1246.28 1071.84 1289.95 1052.58 1326.29 1025.42
  A 0.21 0.20 -18.8 0 1 1326.62 1025.58
  L 1326.62 1055.89
  A 0.88 0.88 0.0 0 1 1326.22 1056.63
  Q 1276.87 1088.84 1220.72 1104.69
  Q 1195.18 1111.90 1170.51 1112.77
  C 1116.12 1114.69 1064.29 1101.11 1018.61 1072.08
  Q 940.70 1022.56 902.90 936.54
  Q 902.66 936.00 901.79 935.75
  A 1.05 1.03 86.7 0 1 901.13 935.15
  C 866.96 854.55 870.20 756.75 910.80 679.09
  Q 931.38 639.71 966.36 603.27
  A 2.82 2.81 76.3 0 0 966.99 602.23
  L 1090.95 229.27
  A 0.89 0.88 -80.9 0 1 1091.79 228.66
  L 1129.28 228.66
  A 0.53 0.53 0.0 0 1 1129.78 229.02
  L 1230.11 528.28
  A 0.74 0.74 0.0 0 0 1230.62 528.75
  Q 1241.15 531.42 1251.09 535.15
  Q 1290.95 550.12 1325.89 573.57
  A 1.25 1.25 0.0 0 1 1326.45 574.61
  L 1326.45 607.18
  A 0.28 0.28 0.0 0 1 1325.99 607.40
  C 1300.50 586.99 1270.85 571.34 1240.13 559.98
  A 0.42 0.42 0.0 0 0 1239.58 560.51
  Z
  M 1011.95 566.11
  C 1055.95 537.14 1104.50 521.44 1157.25 521.26
  Q 1170.00 521.21 1171.85 521.31
  A 0.48 0.48 0.0 0 0 1172.32 520.68
  L 1099.92 296.32
  A 0.28 0.28 0.0 0 0 1099.38 296.32
  L 1011.38 565.68
  A 0.38 0.38 0.0 0 0 1011.95 566.11
  Z"
/>
<path fill="#ffffff" d="
  M 673.69 675.20
  L 839.06 675.20
  A 0.59 0.58 2.1 0 0 839.65 674.66
  Q 840.34 666.10 841.54 660.54
  Q 846.10 639.46 854.71 616.45
  Q 857.78 608.27 860.63 602.78
  A 1.02 1.00 13.4 0 1 861.53 602.24
  L 873.04 602.24
  A 0.53 0.53 0.0 0 1 873.57 602.81
  L 865.60 698.38
  A 0.34 0.34 0.0 0 1 865.26 698.70
  L 572.44 698.70
  A 0.63 0.62 -90.0 0 1 571.82 698.07
  L 571.82 691.17
  A 0.80 0.79 79.1 0 1 572.31 690.43
  Q 595.02 680.74 619.24 677.91
  A 0.32 0.31 87.0 0 0 619.52 677.59
  L 619.52 251.12
  A 0.27 0.26 -86.4 0 0 619.29 250.85
  Q 595.51 247.20 572.35 238.19
  A 0.82 0.82 0.0 0 1 571.82 237.42
  L 571.82 230.64
  A 0.65 0.64 90.0 0 1 572.46 229.99
  L 864.98 229.99
  A 0.60 0.59 -90.0 0 1 865.57 230.59
  L 865.57 327.20
  A 0.60 0.60 0.0 0 1 864.97 327.80
  L 853.95 327.80
  A 0.86 0.85 -11.4 0 1 853.16 327.28
  Q 849.93 319.67 847.86 311.14
  Q 841.10 283.40 837.86 255.05
  A 0.25 0.25 0.0 0 0 837.61 254.83
  L 673.31 254.83
  A 0.27 0.27 0.0 0 0 673.04 255.10
  L 673.04 455.75
  A 0.57 0.56 -0.0 0 0 673.61 456.31
  L 791.94 456.31
  A 0.64 0.63 -87.0 0 0 792.57 455.74
  Q 793.81 443.48 796.70 426.99
  Q 799.26 412.41 803.25 401.20
  A 0.76 0.75 -80.1 0 1 803.96 400.70
  L 812.08 400.70
  A 0.62 0.62 0.0 0 1 812.70 401.32
  L 812.70 535.45
  A 0.59 0.59 0.0 0 1 812.11 536.04
  L 804.00 536.04
  A 0.79 0.78 80.6 0 1 803.26 535.50
  C 797.42 518.06 794.63 499.25 792.57 480.90
  A 0.55 0.54 86.4 0 0 792.03 480.42
  L 673.49 480.41
  A 0.46 0.45 -90.0 0 0 673.04 480.87
  L 673.04 674.56
  A 0.65 0.64 0.0 0 0 673.69 675.20
  Z"
/>
<path fill="#ffffff" d="
  M 2083.28 235.33
  L 2083.28 242.68
  A 0.98 0.98 0.0 0 1 2082.67 243.59
  Q 2060.40 252.65 2037.25 256.11
  A 0.65 0.64 -4.8 0 0 2036.71 256.74
  L 2036.71 682.84
  A 0.53 0.52 5.4 0 0 2037.14 683.35
  Q 2060.74 687.33 2082.74 695.68
  A 0.85 0.83 10.8 0 1 2083.28 696.46
  L 2083.28 702.67
  A 0.69 0.69 0.0 0 1 2082.59 703.36
  L 1939.60 703.36
  A 0.66 0.65 0.0 0 1 1938.94 702.71
  L 1938.94 697.31
  A 1.08 1.08 0.0 0 1 1939.59 696.32
  C 1953.37 690.24 1963.57 685.98 1976.65 684.15
  Q 1981.59 683.46 1983.27 683.14
  A 0.65 0.64 -5.4 0 0 1983.80 682.51
  L 1983.80 478.08
  A 0.38 0.38 0.0 0 0 1983.42 477.70
  L 1773.82 477.70
  A 0.38 0.37 90.0 0 0 1773.45 478.08
  L 1773.45 682.92
  A 0.42 0.42 0.0 0 0 1773.78 683.33
  Q 1796.82 688.27 1817.76 695.68
  A 0.83 0.83 0.0 0 1 1818.30 696.46
  L 1818.30 702.64
  A 0.72 0.72 0.0 0 1 1817.58 703.36
  L 1674.94 703.36
  A 0.38 0.37 -0.0 0 1 1674.56 702.99
  L 1674.56 695.93
  A 1.03 1.01 -11.2 0 1 1675.20 694.99
  Q 1696.58 686.14 1719.37 683.27
  A 0.66 0.65 86.5 0 0 1719.94 682.62
  L 1719.94 256.07
  A 0.77 0.76 5.5 0 0 1719.32 255.32
  Q 1696.38 250.95 1675.16 243.03
  A 0.94 0.92 10.7 0 1 1674.56 242.17
  L 1674.56 235.29
  A 0.65 0.64 0.0 0 1 1675.21 234.65
  L 1817.85 234.65
  A 0.45 0.45 0.0 0 1 1818.30 235.10
  L 1818.30 241.91
  A 0.87 0.87 0.0 0 1 1817.82 242.69
  Q 1796.70 253.20 1774.04 255.40
  A 0.66 0.65 -2.9 0 0 1773.45 256.05
  L 1773.45 453.18
  A 0.39 0.38 90.0 0 0 1773.83 453.57
  L 1983.41 453.57
  A 0.39 0.39 0.0 0 0 1983.80 453.18
  L 1983.80 255.82
  A 0.37 0.37 0.0 0 0 1983.50 255.46
  Q 1961.10 251.02 1939.58 242.89
  A 0.99 0.98 10.3 0 1 1938.94 241.97
  L 1938.94 235.27
  A 0.63 0.62 0.0 0 1 1939.57 234.65
  L 2082.59 234.65
  A 0.69 0.68 -0.0 0 1 2083.28 235.33
  Z"
/>
<path fill="#ffffff" d="
  M 2110.36 1109.92
  A 0.23 0.23 0.0 0 1 2110.13 1109.69
  L 2110.13 801.35
  A 0.27 0.27 0.0 0 0 2109.86 801.08
  L 2067.38 801.08
  A 0.39 0.38 0.0 0 1 2066.99 800.70
  L 2066.99 770.29
  A 0.61 0.61 0.0 0 1 2067.60 769.68
  L 2109.51 769.68
  A 0.61 0.61 0.0 0 0 2110.12 769.08
  Q 2110.19 756.58 2110.09 687.14
  Q 2110.07 674.31 2111.41 667.48
  C 2116.44 641.95 2133.36 619.05 2155.66 605.32
  Q 2192.29 582.78 2237.27 585.32
  Q 2259.93 586.60 2279.68 592.44
  A 0.48 0.48 0.0 0 1 2279.98 593.10
  L 2268.17 619.94
  A 0.54 0.54 0.0 0 1 2267.50 620.24
  C 2240.01 610.84 2212.96 612.14 2187.37 625.85
  C 2169.28 635.54 2155.39 650.12 2150.72 669.87
  Q 2149.12 676.67 2149.31 690.87
  Q 2149.44 700.43 2149.34 769.26
  A 0.42 0.42 0.0 0 0 2149.76 769.68
  L 2235.72 769.68
  A 0.41 0.41 0.0 0 1 2236.13 770.09
  L 2236.13 800.52
  A 0.57 0.56 -0.0 0 1 2235.56 801.08
  L 2149.95 801.08
  A 0.59 0.59 0.0 0 0 2149.36 801.67
  L 2149.36 1109.55
  A 0.37 0.37 0.0 0 1 2148.99 1109.92
  L 2110.36 1109.92
  Z"
/>
<path fill="#ffffff" d="
  M 2378.83 625.04
  Q 2389.24 625.04 2397.07 625.19
  A 0.55 0.54 -89.7 0 1 2397.60 625.74
  L 2397.60 769.34
  A 0.34 0.34 0.0 0 0 2397.94 769.68
  L 2480.99 769.68
  A 0.64 0.64 0.0 0 1 2481.63 770.32
  L 2481.63 800.48
  A 0.61 0.60 0.0 0 1 2481.02 801.08
  L 2398.08 801.08
  A 0.48 0.48 0.0 0 0 2397.60 801.56
  L 2397.60 1109.23
  A 0.64 0.64 0.0 0 1 2396.98 1109.87
  Q 2395.11 1109.93 2378.83 1109.93
  Q 2362.55 1109.93 2360.67 1109.87
  A 0.64 0.64 0.0 0 1 2360.06 1109.23
  L 2360.05 801.56
  A 0.48 0.48 0.0 0 0 2359.57 801.08
  L 2276.63 801.08
  A 0.61 0.60 -0.0 0 1 2276.02 800.48
  L 2276.02 770.32
  A 0.64 0.64 0.0 0 1 2276.66 769.68
  L 2359.71 769.68
  A 0.34 0.34 0.0 0 0 2360.05 769.34
  L 2360.05 625.74
  A 0.55 0.54 89.7 0 1 2360.58 625.19
  Q 2368.42 625.04 2378.83 625.04
  Z"
/>
<path fill="#ffffff" d="
  M 1414.20 793.17
  Q 1426.80 775.00 1444.07 762.97
  Q 1483.78 735.29 1533.57 736.71
  C 1559.90 737.47 1585.23 747.39 1606.36 762.90
  A 1.05 1.03 -72.1 0 1 1606.78 763.74
  L 1606.78 799.77
  A 0.33 0.33 0.0 0 1 1606.22 800.00
  C 1589.57 783.43 1569.78 770.69 1546.99 765.38
  C 1515.25 758.00 1482.70 766.00 1456.87 785.80
  C 1435.75 801.99 1420.26 823.82 1415.09 850.52
  Q 1413.49 858.82 1413.64 882.56
  Q 1413.78 904.71 1413.68 1108.91
  A 0.68 0.68 0.0 0 1 1413.00 1109.59
  L 1383.69 1109.59
  A 0.46 0.46 0.0 0 1 1383.23 1109.13
  L 1383.23 745.79
  A 0.41 0.41 0.0 0 1 1383.64 745.38
  L 1413.05 745.38
  A 0.64 0.63 0.0 0 1 1413.69 746.01
  L 1413.69 793.01
  A 0.28 0.28 0.0 0 0 1414.20 793.17
  Z"
/>
<path fill="#ffffff" d="
  M 1986.62 815.07
  L 1986.62 767.95
  A 0.57 0.57 0.0 0 1 1987.19 767.38
  L 2020.31 767.38
  A 0.62 0.62 0.0 0 1 2020.93 768.00
  L 2020.93 1108.12
  A 0.56 0.56 0.0 0 1 2020.37 1108.68
  L 1987.27 1108.68
  A 0.65 0.64 0.0 0 1 1986.62 1108.04
  L 1986.62 1039.82
  A 0.27 0.27 0.0 0 0 1986.14 1039.65
  C 1956.68 1076.54 1915.50 1102.95 1869.31 1113.04
  C 1815.38 1124.82 1756.24 1118.29 1708.39 1090.01
  Q 1669.77 1067.19 1643.76 1031.93
  C 1614.42 992.17 1604.63 942.55 1613.18 894.20
  C 1618.96 861.54 1634.07 832.29 1656.60 807.29
  C 1686.60 774.01 1726.02 750.50 1769.99 741.45
  C 1808.37 733.56 1851.38 735.16 1888.68 747.38
  Q 1946.52 766.33 1986.25 815.20
  A 0.21 0.21 0.0 0 0 1986.62 815.07
  Z
  M 1646.28 928.24
  C 1646.44 963.31 1657.88 995.48 1680.75 1022.52
  C 1701.36 1046.89 1728.71 1066.14 1758.96 1076.05
  C 1789.30 1085.99 1823.11 1087.63 1854.23 1081.79
  C 1887.86 1075.47 1917.41 1059.81 1942.51 1035.79
  Q 1974.56 1005.10 1984.92 965.49
  Q 1986.71 958.66 1986.75 956.25
  Q 1986.76 956.21 1986.62 926.70
  Q 1986.49 897.18 1986.49 897.14
  Q 1986.42 894.73 1984.57 887.92
  Q 1973.85 848.40 1941.52 818.00
  C 1916.21 794.21 1886.52 778.82 1852.83 772.81
  C 1821.66 767.25 1787.86 769.20 1757.62 779.41
  C 1727.46 789.59 1700.28 809.09 1679.89 833.65
  C 1657.27 860.89 1646.12 893.16 1646.28 928.24
  Z"
/>
</svg>